<svg xmlns="http://www.w3.org/2000/svg" width="24" height="24" viewBox="0 0 24 24" fill="none" role="img" class="icon fill-current">
<path d="M15.2121 0.75C14.5218 0.75 13.9621 1.30964 13.9621 2C13.9621 2.69036 14.5218 3.25 15.2121 3.25H18.9822L7.11612 15.1161C6.62796 15.6043 6.62796 16.3957 7.11612 16.8839C7.60427 17.372 8.39573 17.372 8.88388 16.8839L20.75 5.01777V8.5C20.75 9.19036 21.3096 9.75 22 9.75C22.6904 9.75 23.25 9.19036 23.25 8.5V2C23.25 1.30964 22.6904 0.75 22 0.75H15.2121Z"/>
<path d="M3.25 8C3.25 7.0335 4.0335 6.25 5 6.25H8.1C8.79036 6.25 9.35 5.69036 9.35 5C9.35 4.30964 8.79036 3.75 8.1 3.75H5C2.65279 3.75 0.75 5.65279 0.75 8V19C0.75 21.3472 2.65279 23.25 5 23.25H16C18.3472 23.25 20.25 21.3472 20.25 19V15.9C20.25 15.2096 19.6904 14.65 19 14.65C18.3096 14.65 17.75 15.2096 17.75 15.9V19C17.75 19.9665 16.9665 20.75 16 20.75H5C4.0335 20.75 3.25 19.9665 3.25 19V8Z"/>
</svg>